<?xml version="1.0" encoding="utf-8"?>
<!-- Generator: Adobe Illustrator 24.1.1, SVG Export Plug-In . SVG Version: 6.00 Build 0)  -->
<svg version="1.1" id="Layer_1" xmlns="http://www.w3.org/2000/svg" xmlns:xlink="http://www.w3.org/1999/xlink" x="0px" y="0px"
	 viewBox="0 0 512 512" style="enable-background:new 0 0 512 512;" xml:space="preserve">
<style type="text/css">
	.st0{fill:#333333;}
</style>
<g id="XMLID_1_">
	<path id="XMLID_3_" class="st0" d="M185.1,196.9c22.8-26,19.7-65.4-6.3-87.4S44.9,74.8,44.9,74.8S67,175.7,97.7,203.2
		C123.7,225.3,163.1,222.9,185.1,196.9z"/>
	<path id="XMLID_4_" class="st0" d="M285.1,232.4c0-7.9,2.4-18.1,7.1-27.6c35.4,22.8,82.7,18.9,113.4-12.6
		C440.3,156.8,467.1,0,467.1,0S319,23.6,277.3,66.2c-26,26-31.5,63.8-18.9,96.1c-15.8,23.6-23.6,48.8-23.6,69.3v74.8h51.2v-74H285.1
		z"/>
	<path id="XMLID_5_" class="st0" d="M404.9,332.4H114.2c-7.9,0-15.8,3.9-20.5,10.2s-6.3,15-3.9,22.1L126,493.1
		c3.2,11,13.4,18.9,24.4,18.9h217.4c11.8,0,21.3-7.9,24.4-18.9l37-127.6c2.4-7.9,0.8-15.8-3.9-22.1
		C420.6,336.3,412.8,332.4,404.9,332.4z"/>
</g>
</svg>
